<?xml version="1.0" encoding="iso-8859-1"?>
<!-- Generator: Adobe Illustrator 19.0.0, SVG Export Plug-In . SVG Version: 6.00 Build 0)  -->
<svg version="1.1" id="Capa_1" xmlns="http://www.w3.org/2000/svg" xmlns:xlink="http://www.w3.org/1999/xlink" x="0px" y="0px"
	 viewBox="0 0 512.001 512.001" style="enable-background:new 0 0 512.001 512.001;" xml:space="preserve">
<path style="fill:#0D70B2;" d="M477.202,461.601l-127.2-127.2c-5.7-6-15.3-6-21-0.3c-17.701,17.699-46.201,17.699-63.9,0.3
	l-87.501-88.176c-17.401-17.701-17.401-46.199,0.3-63.9c5.7-5.7,5.7-15.3-0.3-21l-127.2-127.2c-5.7-6-15.3-6-21,0
	c-18.9,18.6-29.399,52.8-29.399,95.7c-0.3,72.9,32.3,183.876,116.6,268.176s191.7,114,264.3,114c0,0,0.3,0,0.601,0
	c42.9,0,77.1-10.499,95.7-29.399C483.202,476.902,483.202,467.301,477.202,461.601z"/>
<path style="fill:#0059AA;" d="M477.202,461.601c6,5.7,6,15.3,0,21c-18.6,18.9-52.8,29.399-95.7,29.399c-0.3,0-0.601,0-0.601,0
	c-72.599,0-180-29.7-264.3-114L222.8,292.099l42.301,42.301c17.699,17.399,46.199,17.399,63.9-0.3c5.7-5.7,15.3-5.7,21,0.3
	L477.202,461.601z"/>
<path style="fill:#17ACE8;" d="M198.901,97.725L114,12.824c-16.8-17.098-46.8-17.098-63.9,0l-20.7,21l148.5,148.5l21-20.7v-0.3
	C216.6,143.925,216.6,115.126,198.901,97.725z"/>
<path style="fill:#1689FC;" d="M498.501,398.001L413.602,313.1c-16.8-17.1-46.8-17.1-63.9,0l-20.7,21l148.5,148.5l20.999-20.7
	c0-0.3,0-0.3,0-0.3C516.202,444.201,516.202,415.4,498.501,398.001z"/>
<g>
	<path style="fill:#1DE8F1;" d="M512.001,225.001c0,19.799-30,19.799-30,0c0-53.701-21.899-102.601-56.999-138.001
		c-35.402-35.099-84.3-56.999-138.001-56.999c-19.799,0-19.799-30,0-30c62.1,0,118.5,25.199,159,65.999
		C486.802,106.501,512.001,162.901,512.001,225.001z"/>
	<path style="fill:#1DE8F1;" d="M452.001,225.001c0,19.799-30,19.799-30,0c0-37.202-15.3-71.1-39.6-95.402
		c-24.3-24.3-58.2-39.598-95.4-39.598c-19.799,0-19.799-30,0-30c45.601,0,86.7,18.3,116.7,48.3S452.001,179.4,452.001,225.001z"/>
	<path style="fill:#1DE8F1;" d="M392.001,225.001c0,19.799-30,19.799-30,0c0-20.7-8.399-39.3-21.899-53.101
		c-13.801-13.5-32.401-21.899-53.101-21.899c-19.799,0-19.799-30,0-30c29.101,0,55.201,11.699,74.101,30.899
		C380.301,169.8,392.001,195.9,392.001,225.001z"/>
	<path style="fill:#1DE8F1;" d="M332.001,225.001c0,19.799-30,19.799-30,0c0-4.2-1.5-8.101-4.499-10.501
		c-2.401-2.999-6.301-4.499-10.501-4.499c-19.799,0-19.799-30,0-30c12.301,0,23.701,5.099,31.8,13.2
		C326.902,201.3,332.001,212.7,332.001,225.001z"/>
</g>
<g>
	<path style="fill:#1BD9DE;" d="M302.001,225.001c0-4.2-1.5-8.101-4.499-10.501l21.299-21.299c8.101,8.099,13.2,19.499,13.2,31.8
		C332.001,244.8,302.001,244.8,302.001,225.001z"/>
	<path style="fill:#1BD9DE;" d="M362.001,225.001c0-20.7-8.399-39.3-21.899-53.101l21-21c19.199,18.9,30.899,45,30.899,74.101
		C392.001,244.8,362.001,244.8,362.001,225.001z"/>
	<path style="fill:#1BD9DE;" d="M422.001,225.001c0-37.202-15.3-71.1-39.6-95.402l21.301-21.299c30,30,48.3,71.1,48.3,116.7
		C452.001,244.8,422.001,244.8,422.001,225.001z"/>
	<path style="fill:#1BD9DE;" d="M512.001,225.001c0,19.799-30,19.799-30,0c0-53.701-21.899-102.601-56.999-138.001l20.999-21
		C486.802,106.501,512.001,162.901,512.001,225.001z"/>
</g>
<g>
</g>
<g>
</g>
<g>
</g>
<g>
</g>
<g>
</g>
<g>
</g>
<g>
</g>
<g>
</g>
<g>
</g>
<g>
</g>
<g>
</g>
<g>
</g>
<g>
</g>
<g>
</g>
<g>
</g>
</svg>
